<svg xmlns="http://www.w3.org/2000/svg" viewBox="0 0 190 46" font-family="ui-monospace,SFMono-Regular,Menlo,Consolas,monospace">
  <defs>
    <linearGradient id="bg" x1="0" y1="0" x2="0" y2="1">
      <stop offset="0" stop-color="#161b22"/>
      <stop offset="1" stop-color="#0d1117"/>
    </linearGradient>
    <linearGradient id="ul" x1="0" y1="0" x2="1" y2="0">
      <stop offset="0" stop-color="#6ab9ff" stop-opacity="0"/>
      <stop offset="0.5" stop-color="#6ab9ff" stop-opacity="0.9"/>
      <stop offset="1" stop-color="#6ab9ff" stop-opacity="0"/>
    </linearGradient>
    <filter id="glow" x="-50%" y="-50%" width="200%" height="200%">
      <feGaussianBlur stdDeviation="1.8"/>
    </filter>
  </defs>
  <rect x="1" y="1" width="188" height="42" rx="11" fill="url(#bg)" stroke="#30363d" stroke-width="1.2"/>
  <rect x="34" y="41" width="122" height="2.2" rx="1.1" fill="url(#ul)" filter="url(#glow)"/>
  <g transform="translate(17,12) scale(0.84)">
    <path fill="#6ab9ff" d="M20.447 20.452h-3.554v-5.569c0-1.328-.027-3.037-1.852-3.037-1.853 0-2.136 1.445-2.136 2.939v5.667H9.351V9h3.414v1.561h.046c.477-.9 1.637-1.85 3.37-1.85 3.601 0 4.267 2.37 4.267 5.455v6.286zM5.337 7.433c-1.144 0-2.063-.926-2.063-2.065 0-1.138.92-2.063 2.063-2.063 1.14 0 2.064.925 2.064 2.063 0 1.139-.925 2.065-2.064 2.065zm1.782 13.019H3.555V9h3.564v11.452zM22.225 0H1.771C.792 0 0 .774 0 1.729v20.542C0 23.227.792 24 1.771 24h20.451C23.2 24 24 23.227 24 22.271V1.729C24 .774 23.2 0 22.225 0z"/>
  </g>
  <text x="48" y="27.5" font-size="13" letter-spacing="2" fill="#c9d1d9">linkedin</text>
  <text x="166" y="28" font-size="14" fill="#6ab9ff">&gt;</text>
</svg>
