<svg xmlns="http://www.w3.org/2000/svg" viewBox="0 0 840 310" font-family="ui-monospace,SFMono-Regular,Menlo,Consolas,monospace" font-size="14">
  <defs>
    <clipPath id="win"><rect x="1" y="1" width="838" height="308" rx="12"/></clipPath>
  </defs>
  <rect x="1" y="1" width="838" height="308" rx="12" fill="#0d1117" stroke="#30363d" stroke-width="1.3"/>
  <g clip-path="url(#win)">
    <rect x="1" y="1" width="838" height="38" fill="#161b22"/>
    <line x1="1" y1="39" x2="839" y2="39" stroke="#21262d" stroke-width="1"/>
  </g>
  <circle cx="26" cy="20" r="6.5" fill="#ff5f57"/>
  <circle cx="48" cy="20" r="6.5" fill="#febc2e"/>
  <circle cx="70" cy="20" r="6.5" fill="#28c840"/>
  <text x="420" y="25" text-anchor="middle" font-size="12" fill="#8b949e">bronx@genesis: ~</text>

  <text x="36" y="76" fill="#3fb950">$</text>
  <text x="54" y="76" fill="#e6edf3">whoami</text>

  <text x="36" y="100" fill="#c98a5a" font-weight="700">BronxDEV</text>
  <text x="118" y="100" fill="#7d8590">//</text>
  <text x="146" y="100" fill="#79c0ff">Bronxdev-sys</text>

  <text x="36" y="138" fill="#3fb950">$</text>
  <text x="54" y="138" fill="#e6edf3">cat</text>
  <text x="90" y="138" fill="#79c0ff">genesis.log</text>

  <text x="36" y="168" fill="#6ab9ff">role</text>
  <text x="122" y="168" fill="#7d8590">:</text>
  <text x="142" y="168" fill="#e6edf3">full-stack &#183; 3d &#183; systems engineer</text>

  <text x="36" y="192" fill="#6ab9ff">range</text>
  <text x="122" y="192" fill="#7d8590">:</text>
  <text x="142" y="192" fill="#e6edf3">browser paint loop</text>
  <text x="298" y="192" fill="#c98a5a">-&gt;</text>
  <text x="324" y="192" fill="#e6edf3">kernel scheduler</text>

  <text x="36" y="216" fill="#6ab9ff">shipping</text>
  <text x="122" y="216" fill="#7d8590">:</text>
  <text x="142" y="216" fill="#3fb950">idlemarket.com.br</text>

  <text x="36" y="240" fill="#6ab9ff">motto</text>
  <text x="122" y="240" fill="#7d8590">:</text>
  <text x="142" y="240" fill="#c98a5a" font-style="italic">from the spark to the system</text>

  <text x="36" y="278" fill="#3fb950">$</text>
  <rect x="54" y="265" width="9" height="17" fill="#6ab9ff">
    <animate attributeName="opacity" values="1;1;0;0;1" dur="1.2s" repeatCount="indefinite"/>
  </rect>
</svg>
